{
	"asset":{
		"generator":"Khronos glTF Blender I/O v4.3.47",
		"version":"2.0"
	},
	"scene":0,
	"scenes":[
		{
			"name":"Scene",
			"nodes":[
				0
			]
		}
	],
	"nodes":[
		{
			"mesh":0,
			"name":"Cube",
			"translation":[
				-0.4583301544189453,
				-0.2562475800514221,
				1.780235767364502
			]
		}
	],
	"meshes":[
		{
			"name":"Cube.001",
			"primitives":[
				{
					"attributes":{
						"POSITION":0,
						"NORMAL":1,
						"TEXCOORD_0":2
					},
					"indices":3
				}
			]
		}
	],
	"accessors":[
		{
			"bufferView":0,
			"componentType":5126,
			"count":930,
			"max":[
				2.7149713039398193,
				1.0605754852294922,
				0.7751362323760986
			],
			"min":[
				-1.6213011741638184,
				-0.5751484036445618,
				-0.7751362323760986
			],
			"type":"VEC3"
		},
		{
			"bufferView":1,
			"componentType":5126,
			"count":930,
			"type":"VEC3"
		},
		{
			"bufferView":2,
			"componentType":5126,
			"count":930,
			"type":"VEC2"
		},
		{
			"bufferView":3,
			"componentType":5123,
			"count":1290,
			"type":"SCALAR"
		}
	],
	"bufferViews":[
		{
			"buffer":0,
			"byteLength":11160,
			"byteOffset":0,
			"target":34962
		},
		{
			"buffer":0,
			"byteLength":11160,
			"byteOffset":11160,
			"target":34962
		},
		{
			"buffer":0,
			"byteLength":7440,
			"byteOffset":22320,
			"target":34962
		},
		{
			"buffer":0,
			"byteLength":2580,
			"byteOffset":29760,
			"target":34963
		}
	],
	"buffers":[
		{
			"byteLength":32340,
			"uri":"shark.bin"
		}
	]
}
