{"asset":{"version":"2.0","generator":"Blockbench 4.9.3 glTF exporter"},"scenes":[{"nodes":[2],"name":"blockbench_export"}],"scene":0,"nodes":[{"rotation":[-0.0071657551956149325,0.0054972918759746015,0.7115494139045586,0.7025780122567074],"translation":[0.5261540852505802,0.009540731972325453,0.09049952883332191],"name":"cuboid","mesh":0},{"name":"cuboid","mesh":1},{"children":[0,1]}],"bufferViews":[{"buffer":0,"byteOffset":0,"byteLength":6000,"target":34962,"byteStride":12},{"buffer":0,"byteOffset":6000,"byteLength":6000,"target":34962,"byteStride":12},{"buffer":0,"byteOffset":12000,"byteLength":4000,"target":34962,"byteStride":8},{"buffer":0,"byteOffset":16000,"byteLength":1464,"target":34963},{"buffer":0,"byteOffset":17464,"byteLength":288,"target":34962,"byteStride":12},{"buffer":0,"byteOffset":17752,"byteLength":288,"target":34962,"byteStride":12},{"buffer":0,"byteOffset":18040,"byteLength":192,"target":34962,"byteStride":8},{"buffer":0,"byteOffset":18232,"byteLength":72,"target":34963}],"buffers":[{"byteLength":18304,"uri":"data:application/octet-stream;base64,"}],"accessors":[{"bufferView":0,"componentType":5126,"count":500,"max":[0.5254583358764648,1.1408827304840088,0.25],"min":[-0.3284265100955963,-0.8620843291282654,-0.21875],"type":"VEC3"},{"bufferView":1,"componentType":5126,"count":500,"max":[0.9478557109832764,1,0.9925773739814758],"min":[-0.9672003984451294,-1,-0.9925869107246399],"type":"VEC3"},{"bufferView":2,"componentType":5126,"count":500,"max":[0.7265625,0.765625],"min":[0,0],"type":"VEC2"},{"bufferView":3,"componentType":5123,"count":732,"max":[499],"min":[0],"type":"SCALAR"},{"bufferView":4,"componentType":5126,"count":24,"max":[1.21875,0.234375,0.125],"min":[0.46875,0.203125,0.09375],"type":"VEC3"},{"bufferView":5,"componentType":5126,"count":24,"max":[1,1,1],"min":[-1,-1,-1],"type":"VEC3"},{"bufferView":6,"componentType":5126,"count":24,"max":[0.75,0.5625],"min":[0,0],"type":"VEC2"},{"bufferView":7,"componentType":5123,"count":36,"max":[23],"min":[0],"type":"SCALAR"}],"materials":[{"pbrMetallicRoughness":{"metallicFactor":0,"roughnessFactor":1,"baseColorTexture":{"index":0}},"alphaMode":"MASK","alphaCutoff":0.05,"doubleSided":true},{"pbrMetallicRoughness":{"metallicFactor":0,"roughnessFactor":1,"baseColorTexture":{"index":1}},"alphaMode":"MASK","alphaCutoff":0.05,"doubleSided":true}],"textures":[{"sampler":0,"source":0},{"sampler":1,"source":1}],"samplers":[{"magFilter":9728,"minFilter":9728,"wrapS":33071,"wrapT":33071},{"magFilter":9728,"minFilter":9728,"wrapS":33071,"wrapT":33071}],"images":[{"mimeType":"image/png","uri":"data:image/png;base64,"},{"mimeType":"image/png","uri":"data:image/png;base64,"}],"meshes":[{"primitives":[{"mode":4,"attributes":{"POSITION":0,"NORMAL":1,"TEXCOORD_0":2},"indices":3,"material":0}]},{"primitives":[{"mode":4,"attributes":{"POSITION":4,"NORMAL":5,"TEXCOORD_0":6},"indices":7,"material":1}]}]}